<?xml version="1.0" encoding="UTF-8"?>
<svg
	id="Layer_2"
	data-name="Layer 2"
	xmlns="http://www.w3.org/2000/svg"
	viewBox="0 0 508.28 374.25"
>
	<defs>
		<style>
		.cls-1 {
			fill: #fe7f03;
		}

		.cls-1, .cls-2, .cls-3 {
			stroke-width: 0px;
		}

		.cls-2 {
			fill: #000;
		}

		.cls-3 {
			fill: #fff;
		}
		</style>
	</defs>
	<g id="Layer_1-2" data-name="Layer 1">
		<path
			class="cls-3"
			d="M246.22,155.26s0,0,0,0c.74-.84,35.47-44.09,1.95-85.87-1.62-1.56-3.24-3.15-4.87-4.75-10.27-10.09-20.89-20.52-34.92-28.08-15.72-8.49-32.58-12.62-49.54-12.62-32.08,0-64.52,14.79-90.38,42.86C4.07,136.73,17.56,233.03,59.5,297.45c27.5,42.25,52.8,52.56,57.95,52.96,38.67-4.33,74.17-29.35,96.34-67.52-26.37-16.65-56.83-38.84-50.89-73.9-11.44-1.59-26.64-5.43-40.91-14.47-10.79-6.83-19.64-15.81-25.61-25.97-2.5-4.25-1.08-9.72,3.17-12.21,4.24-2.5,9.72-1.08,12.21,3.17,4.54,7.72,11.38,14.61,19.78,19.94,15.57,9.86,32.74,12.19,42.14,12.67l.98.05c36,1.75,61.47-24.27,71.61-36.89-.02,0-.04,0-.06,0-.02.02-.02.02,0,0Z"
		/>
		<path
			class="cls-3"
			d="M117.77,374.25c-12.7,0-45.41-13.33-78.26-63.79C9.86,264.92-3.53,214.99.79,166.06c3.83-43.48,21.64-84.47,50.14-115.41C81.01,17.99,119.28,0,158.7,0c21.33,0,41.86,5.24,61.01,15.57,16.99,9.17,29.37,21.32,40.29,32.04,9.57,9.39,17.82,17.49,26.25,20.64,19.61,7.53,33.61,10.93,48.6,14.29.07.02.81.21.81.21.07.02.14.04.21.06,11.6,3.48,23.52,5.56,34.04,7.4,19.62,3.42,32.54,5.68,39.04,15.67,3.01,4.63,3.91,10.19,2.54,15.66-.02.08-.25.88-.25.88-.02.07-.04.15-.07.22-7.28,21.82-29.19,38.87-61.71,47.99-17.07,4.79-35.85,7.21-55.82,7.21h0c-11.02,0-22.21-.76-33.3-2.26-20.92,23.72-47.01,37.81-74.21,40.15-.96,15.69,11.94,29.35,47.4,51.37l7,4.34c2.66,1.65,3.6,5.07,2.17,7.85l-3.78,7.33c-25.48,49.43-70.03,82.15-119.16,87.52-.66.07-1.32.1-1.99.1h0ZM158.85,29.94c-31.13,0-61.66,14.53-85.96,40.93-62.22,67.56-49.03,160.84-8.36,223.31,24.85,38.17,47.65,49.15,52.98,50.19,34.96-4.16,66.77-25.73,88.12-59.58-12.32-8-24.59-16.99-33.98-28.07-11.21-13.24-16.36-27.59-15.37-42.74-10.67-2.02-24.43-6.11-37.5-14.39-11.59-7.34-21.12-17.02-27.57-27.99-2.02-3.44-2.58-7.45-1.58-11.31s3.44-7.1,6.88-9.12c2.29-1.35,4.9-2.06,7.56-2.06,5.27,0,10.2,2.82,12.87,7.36,4.06,6.9,10.22,13.09,17.82,17.91,14.54,9.21,30.83,11.31,39.24,11.74l.97.05c1.04.05,2.11.08,3.15.08,32.63,0,55.7-24.8,64.24-35.68l2.71-4.08c1.12-1.69,3.01-2.68,5-2.68.34,0,.67.03,1.01.09l5.69.97c12.22,2.08,24.64,3.14,36.92,3.14,38.05,0,70.84-10.4,84.04-25.96-4.23-.89-9.12-1.75-12.89-2.4-11.21-1.96-23.89-4.17-37.03-8.07-15.93-3.58-30.88-7.23-52.13-15.39-14.24-5.32-25.08-15.96-36.55-27.22-10-9.82-20.31-19.95-33.59-27.11-14.63-7.9-30.34-11.9-46.69-11.9Z"
		/>
		<path
			class="cls-2"
			d="M403.92,109.16c-5.07-7.8-16.97-9.88-34.98-13.02-10.7-1.87-22.82-3.98-34.79-7.57l-.61-.16c-15.23-3.42-29.45-6.87-49.39-14.52-9.63-3.6-18.3-12.11-28.35-21.97-10.64-10.44-22.7-22.28-38.94-31.05C163.97-7.69,100.57,5.6,55.34,54.71,27.74,84.69,10.49,124.41,6.77,166.58c-4.2,47.58,8.86,96.2,37.77,140.6,30.52,46.88,61.45,61.06,73.23,61.06.48,0,.92-.02,1.34-.07,47.12-5.16,89.92-36.67,114.48-84.31l3.78-7.32-7-4.34c-36.21-22.48-54.47-38.89-49.48-62.16,28.13-.91,55.67-15.48,77.05-40.86,31.45,4.67,63.19,3.16,89.91-4.33,30.54-8.57,51.01-24.23,57.63-44.11l.19-.66c.96-3.84.34-7.72-1.75-10.93ZM255.76,150.77l-5.69-.97-2.84,4.28c-9.43,12.07-35.38,39.89-72.56,38.09l-.98-.05c-9.4-.48-26.58-2.8-42.14-12.67-8.4-5.32-15.24-12.22-19.78-19.94-2.5-4.25-7.97-5.67-12.21-3.17-4.25,2.5-5.66,7.97-3.17,12.21,5.97,10.15,14.83,19.13,25.61,25.97,14.28,9.04,29.47,12.88,40.91,14.47-5.94,35.06,24.52,57.26,50.89,73.9-22.18,38.17-57.68,63.19-96.34,67.52-5.15-.4-30.44-10.71-57.95-52.96C17.56,233.03,4.07,136.73,68.47,66.8c25.85-28.08,58.3-42.86,90.38-42.86,16.96,0,33.81,4.13,49.54,12.62,14.02,7.57,24.65,18,34.92,28.08,11.02,10.81,21.42,21.03,34.53,25.93,20.85,8,35.69,11.63,51.5,15.18,12.88,3.84,25.45,6.03,36.54,7.97,7.32,1.28,16.86,2.94,21.38,4.62-13.13,27.83-71.76,42.61-131.49,32.43Z"
		/>
		<circle class="cls-2" cx="182.88" cy="82.24" r="16.36" />
		<g>
			<path
				class="cls-3"
				d="M460.13,215.42c-4.26,0-8.33-1.83-11.16-5.01-2.65-2.98-3.98-6.81-3.74-10.79.23-3.98,2-7.63,4.98-10.28.18-.16.34-.33.51-.5l.21-.2c36.7-36.7,36.7-96.45-.02-133.17l-.18-.18c-.17-.17-.33-.34-.51-.5-2.98-2.65-4.75-6.3-4.98-10.28-.23-3.98,1.1-7.81,3.74-10.79,2.83-3.18,6.89-5.01,11.16-5.01,3.66,0,7.18,1.34,9.91,3.77.75.67,1.42,1.33,1.97,1.89,23.38,23.38,36.27,54.53,36.27,87.69s-12.88,64.31-36.27,87.7c-.58.58-1.23,1.22-1.97,1.88-2.74,2.43-6.26,3.77-9.92,3.77Z"
			/>
			<path
				class="cls-2"
				d="M460.13,209.42c-2.46,0-4.91-1.01-6.67-2.99-3.27-3.68-2.94-9.32.74-12.6.34-.3.63-.6.95-.92,39.06-39.06,39.06-102.61,0-141.67-.32-.32-.62-.62-.95-.92-3.68-3.27-4.01-8.91-.74-12.6,3.27-3.68,8.91-4.02,12.6-.74.6.54,1.14,1.07,1.71,1.64,46.02,46.01,46.02,120.89,0,166.9-.57.57-1.11,1.1-1.71,1.64-1.7,1.51-3.82,2.25-5.92,2.25Z"
			/>
		</g>
		<g>
			<path
				class="cls-3"
				d="M427.66,186.65c-4.28,0-8.36-1.84-11.19-5.05-5.44-6.17-4.85-15.62,1.32-21.06.17-.15.33-.31.48-.47l.16-.16c20.86-20.86,20.87-54.81.01-75.67l-.14-.15c-.17-.17-.33-.34-.49-.48-6.18-5.46-6.78-14.91-1.34-21.08,2.83-3.21,6.91-5.05,11.19-5.05,3.64,0,7.15,1.33,9.88,3.74.7.61,1.38,1.28,1.96,1.87,32.52,32.52,32.54,85.41.05,117.91-.64.64-1.31,1.3-2.03,1.93-2.71,2.4-6.22,3.72-9.86,3.72Z"
			/>
			<path
				class="cls-2"
				d="M427.66,180.65c-2.47,0-4.93-1.02-6.69-3.02-3.26-3.7-2.91-9.33.79-12.6.3-.26.6-.57.9-.87,23.22-23.22,23.22-60.97.02-84.17-.33-.33-.63-.63-.93-.9-3.69-3.26-4.05-8.9-.79-12.6s8.9-4.05,12.59-.78c.56.49,1.13,1.05,1.69,1.61,30.2,30.2,30.2,79.27.05,109.42-.61.61-1.18,1.17-1.74,1.66-1.7,1.5-3.8,2.23-5.9,2.23Z"
			/>
		</g>
		<path class="cls-1" d="M246.22,155.26s0,0,0,0c-.02.03-.01.02,0,0Z" />
		<path
			class="cls-1"
			d="M250.06,149.8l5.69.97c59.74,10.18,118.37-4.6,131.49-32.43-4.52-1.68-14.06-3.35-21.38-4.62-11.1-1.94-23.67-4.13-36.54-7.97-15.81-3.55-30.64-7.17-51.5-15.18-11.16-4.17-20.37-12.21-29.66-21.18,33.52,41.78,1.89,80.41,1.89,80.41Z"
		/>
	</g>
</svg>
