<?xml version="1.0" encoding="UTF-8"?>
<svg
	id="Layer_2"
	data-name="Layer 2"
	xmlns="http://www.w3.org/2000/svg"
	viewBox="0 0 166.87 121.85"
>
	<defs>
		<style>
		.cls-1 {
			fill: #000;
			stroke-width: 0px;
		}

		.cls-2 {
			stroke-linecap: round;
		}

		.cls-2, .cls-3 {
			fill: none;
			stroke: #000;
			stroke-miterlimit: 10;
			stroke-width: 6px;
		}
		</style>
	</defs>
	<g id="Layer_1-2" data-name="Layer 1">
		<g>
			<path
				class="cls-1"
				d="M106.77,29.23c-5.13-1.15-10.52-1.43-17-5-5.5-3.03-6.5-1.27-10.5-5.27,15.11,15.06,1.18,31.67,1.5,31.27,23.5,3.97,44-2,48-14,1-4-10.63-3.59-22-7Z"
			/>
			<path
				class="cls-3"
				d="M131.47,37.68c1-4-10.63-3.59-22-7-5.13-1.15-10.09-2.35-17-5-7.62-2.85-12.76-12.47-23-18C29.1-14.11-20.61,44.24,15.47,99.68c10.29,15.81,20.14,19.39,22.23,19.16,15.23-1.67,28.48-11.86,36.15-26.74-11.51-7.15-21.67-14.4-17.3-26.47,11.23.56,20.72-6.03,26.91-13.95,21.75,3.71,44-2,48-14Z"
			/>
			<path
				class="cls-2"
				d="M56.56,65.63c-2.6-.11-9.54-.67-15.96-4.74-4.31-2.73-6.55-5.88-7.63-7.72"
			/>
			<circle class="cls-1" cx="59.47" cy="25.68" r="5.5" />
			<path
				class="cls-2"
				d="M152.69,12.7c.16.14.3.28.45.43,14.31,14.31,14.31,37.57,0,51.88-.15.15-.29.29-.45.43"
			/>
			<path
				class="cls-2"
				d="M141.78,55.77c.15-.13.3-.28.45-.43,8.97-8.97,8.97-23.56,0-32.53-.15-.15-.3-.3-.45-.43"
			/>
		</g>
	</g>
</svg>
